<?xml version="1.0" encoding="UTF-8"?>
<!-- Generator: Adobe Illustrator 25.2.1, SVG Export Plug-In . SVG Version: 6.00 Build 0)  -->
<svg version="1.1" id="clearspace" xmlns="http://www.w3.org/2000/svg" xmlns:xlink="http://www.w3.org/1999/xlink" x="0px" y="0px" viewBox="0 0 97.5 90" style="enable-background:new 0 0 97.5 90;" xml:space="preserve">
<style type="text/css">
	.st0{fill-rule:evenodd;clip-rule:evenodd;}
</style>
<g style="display:inline;">
	<path class="st0" d="M95,84.9c-1.4,0-2.6,1.1-2.6,2.6c0,1.4,1.1,2.6,2.6,2.6c1.4,0,2.6-1.1,2.6-2.6C97.5,86,96.4,84.9,95,84.9    M95,85.2c1.2,0,2.2,1,2.2,2.2c0,1.2-0.9,2.2-2.2,2.2c-1.2,0-2.2-1-2.2-2.2C92.8,86.2,93.7,85.2,95,85.2 M94.4,87.6H95l0.8,1.3h0.4   l-0.9-1.3c0.4-0.1,0.7-0.3,0.7-0.8c0-0.5-0.3-0.8-1-0.8H94v3h0.4V87.6z M94.4,87.3v-1h0.7c0.4,0,0.7,0.1,0.7,0.5   c0,0.5-0.4,0.5-0.9,0.5H94.4z M8.7,39.5l-4.3,3c-3.1,2.1-4.6,6.3-1.8,10.3c2.7,4,7.1,4.1,10.3,1.9l4.3-3l-2.4-3.5l-4,2.8   c-1.5,1.1-3.4,0.5-4.3-0.9c-1-1.4-0.9-3.3,0.7-4.4l4-2.8L8.7,39.5z M73,0c-0.3,0-0.6,0.2-0.8,0.3c-1.7,1.2-3,3-1.5,5.1   c2.2,3.1,6.7-1.3,7.7,0.2c0.4,0.5,0.1,1.1-0.6,1.6c-0.3,0.2-0.7,0.2-1.1,0.1c-0.3-0.1-0.6-0.3-0.8-0.6L73,8.8   c1.8,2.6,4.2,1.6,6.3,0.2c2-1.4,3.7-3.5,2.1-5.7c-1-1.4-2.1-1.6-3.4-1.2c-2.5,0.8-3.8,1.7-4.2,1.1c-0.3-0.5-0.2-1,0.2-1.3   c0.4-0.3,0.8-0.4,1.1-0.3c0.3,0.1,0.4,0.2,0.6,0.5L79,0h11.2v32.9H51.2c-5.5,0-13.5,2.5-13.5,12c0,9.1,8.2,11.6,13.5,11.6h38.9   v33.4H47.3C23.7,89.9,0,74.1,0,44.9C0,15.7,24.6,0,47.3,0h25.3H73z M23.8,47.1l3.3-2.3c-0.7-0.9-1.1-1.4-1.6-2.1L21,36.2l-3.3,2.3   l3.4,5c0.1,0.1,1.5,1.7-0.1,2.9c-1,0.7-1.9-0.1-2.5-0.9L15,40.4l-3.3,2.3l4,5.8c1.3,1.9,3.5,2.2,5.4,0.9c1.1-0.8,1.7-1.7,1.9-3.1   L23.8,47.1z M25,33.4l-3.2,2.2c0.7,0.9,1.1,1.4,1.6,2.1l4.5,6.4l3.3-2.3l-3.4-5c-0.1-0.1-1.5-1.7,0.1-2.9c1-0.7,1.9,0.1,2.5,0.9   l3.5,5.1l3.3-2.3l-3.4-5c-0.1-0.1-1.5-1.7,0.1-2.9c1-0.7,1.9,0.1,2.5,0.9l3.5,5.1l3.3-2.3L39,28c-1.3-1.9-3.5-2.2-5.4-0.9   c-1.3,0.9-2,2.3-1.9,3.8c-1.1-0.8-2.7-0.5-3.7,0.2c-1.3,0.9-2.1,2.1-1.9,3.7l0,0L25,33.4z M41.3,22.1l-3.2,2.2   c0.7,0.9,1.1,1.4,1.6,2.1l4.5,6.4l3.3-2.3l-3.4-5c-0.1-0.1-1.5-1.7,0.1-2.9c1-0.7,1.9,0.1,2.5,0.9l3.5,5.1l3.3-2.3l-3.4-5   c-0.1-0.1-1.5-1.7,0.1-2.9c1-0.7,1.9,0.1,2.5,0.9l3.5,5.1l3.3-2.3l-4-5.8c-1.3-1.9-3.5-2.2-5.4-0.9c-1.3,0.9-2,2.3-1.9,3.8   c-1.1-0.8-2.7-0.5-3.7,0.2c-1.3,0.9-2.1,2.1-1.9,3.7l0,0L41.3,22.1z M63.7,19.4l-6-8.6L54.4,13l6,8.6L63.7,19.4z M56.7,9.3L55.1,7   l-3.3,2.3l1.6,2.3L56.7,9.3z M62.2,7.7L58.9,10c0.7,0.9,1.1,1.4,1.6,2.1l4.5,6.4l3.3-2.3l-3.4-5c-0.1-0.1-1.5-1.7,0.1-2.9   c1-0.7,1.9,0.1,2.5,0.9l3.5,5.1l3.3-2.3l-4-5.8c-1.3-1.9-3.5-2.2-5.4-0.9c-1.1,0.8-1.7,1.7-1.9,3.1L62.2,7.7z"/>
</g>
</svg>